<svg width="30" height="27" viewBox="0 0 30 27" fill="none" xmlns="http://www.w3.org/2000/svg">
<path d="M12.9956 24.2402L12.9945 24.2393C9.24321 20.8376 6.18788 18.0621 4.06191 15.4612C1.94391 12.8699 0.824273 10.5407 0.824273 8.04356C0.824273 3.96073 4.01063 0.787163 8.08067 0.787163C10.3865 0.787163 12.6117 1.86435 14.0608 3.55278L14.6114 4.19436L15.1621 3.55278C16.6112 1.86435 18.8363 0.787163 21.1422 0.787163C25.2122 0.787163 28.3986 3.96073 28.3986 8.04356C28.3986 10.5407 27.279 12.8699 25.161 15.4612C23.035 18.0621 19.9797 20.8376 16.2283 24.2393L16.2273 24.2402L14.6114 25.7112L12.9956 24.2402Z" fill="#D1D1D1" fill-opacity="0.4" stroke="#FF9595" stroke-width="1.45128"/>
</svg>
