<svg width="30" height="27" viewBox="0 0 30 27" fill="none" xmlns="http://www.w3.org/2000/svg">
<path d="M13.1098 24.2402L13.1088 24.2393C9.35746 20.8376 6.30214 18.0621 4.17617 15.4612C2.05817 12.8699 0.938531 10.5407 0.938531 8.04356C0.938531 3.96073 4.12488 0.787163 8.19493 0.787163C10.5008 0.787163 12.7259 1.86435 14.175 3.55278L14.7257 4.19436L15.2763 3.55278C16.7255 1.86435 18.9506 0.787163 21.2565 0.787163C25.3265 0.787163 28.5128 3.96073 28.5128 8.04356C28.5128 10.5407 27.3932 12.8699 25.2752 15.4612C23.1492 18.0621 20.0939 20.8376 16.3426 24.2393L16.3416 24.2402L14.7257 25.7112L13.1098 24.2402Z" fill="#FF5486" stroke="#FF5486" stroke-width="1.45128"/>
</svg>
