<svg width="38" height="38" viewBox="0 0 38 38" fill="none" xmlns="http://www.w3.org/2000/svg">
<path d="M12.35 3.16675H25.65C30.7167 3.16675 34.8333 7.28341 34.8333 12.3501V25.6501C34.8333 28.0857 33.8658 30.4215 32.1436 32.1437C30.4214 33.8659 28.0856 34.8334 25.65 34.8334H12.35C7.28334 34.8334 3.16667 30.7167 3.16667 25.6501V12.3501C3.16667 9.91451 4.1342 7.57869 5.85641 5.85648C7.57862 4.13428 9.91443 3.16675 12.35 3.16675ZM12.0333 6.33341C10.5216 6.33341 9.07179 6.93395 8.00283 8.00291C6.93387 9.07186 6.33334 10.5217 6.33334 12.0334V25.9667C6.33334 29.1176 8.8825 31.6667 12.0333 31.6667H25.9667C27.4784 31.6667 28.9282 31.0662 29.9972 29.9973C31.0661 28.9283 31.6667 27.4785 31.6667 25.9667V12.0334C31.6667 8.88258 29.1175 6.33341 25.9667 6.33341H12.0333ZM27.3125 8.70841C27.8374 8.70841 28.3408 8.91693 28.712 9.2881C29.0832 9.65926 29.2917 10.1627 29.2917 10.6876C29.2917 11.2125 29.0832 11.7159 28.712 12.0871C28.3408 12.4582 27.8374 12.6667 27.3125 12.6667C26.7876 12.6667 26.2842 12.4582 25.913 12.0871C25.5419 11.7159 25.3333 11.2125 25.3333 10.6876C25.3333 10.1627 25.5419 9.65926 25.913 9.2881C26.2842 8.91693 26.7876 8.70841 27.3125 8.70841ZM19 11.0834C21.0996 11.0834 23.1133 11.9175 24.5979 13.4022C26.0826 14.8868 26.9167 16.9004 26.9167 19.0001C26.9167 21.0997 26.0826 23.1133 24.5979 24.598C23.1133 26.0827 21.0996 26.9167 19 26.9167C16.9004 26.9167 14.8867 26.0827 13.4021 24.598C11.9174 23.1133 11.0833 21.0997 11.0833 19.0001C11.0833 16.9004 11.9174 14.8868 13.4021 13.4022C14.8867 11.9175 16.9004 11.0834 19 11.0834ZM19 14.2501C17.7402 14.2501 16.532 14.7505 15.6412 15.6413C14.7504 16.5321 14.25 17.7403 14.25 19.0001C14.25 20.2599 14.7504 21.468 15.6412 22.3588C16.532 23.2496 17.7402 23.7501 19 23.7501C20.2598 23.7501 21.468 23.2496 22.3588 22.3588C23.2496 21.468 23.75 20.2599 23.75 19.0001C23.75 17.7403 23.2496 16.5321 22.3588 15.6413C21.468 14.7505 20.2598 14.2501 19 14.2501Z" fill="#FF5486"/>
</svg>
