<svg width="18" height="18" viewBox="0 0 18 18" fill="none" xmlns="http://www.w3.org/2000/svg">
<path d="M9 10C8.71667 10 8.479 9.904 8.287 9.712C8.095 9.52 7.99933 9.28267 8 9V1C8 0.71667 8.096 0.479003 8.288 0.287003C8.48 0.0950034 8.71733 -0.000663206 9 3.46021e-06C9.28333 3.46021e-06 9.521 0.0960036 9.713 0.288004C9.905 0.480004 10.0007 0.717337 10 1V9C10 9.28334 9.904 9.521 9.712 9.713C9.52 9.905 9.28267 10.0007 9 10ZM9 18C7.75 18 6.579 17.7623 5.487 17.287C4.395 16.8117 3.445 16.1703 2.637 15.363C1.829 14.5543 1.18767 13.6043 0.713 12.513C0.238333 11.4217 0.000666667 10.2507 0 9C0 7.85 0.208333 6.75 0.625 5.7C1.04167 4.65 1.64167 3.7 2.425 2.85C2.60833 2.65 2.84167 2.55 3.125 2.55C3.40833 2.55 3.65 2.65 3.85 2.85C4.03333 3.03334 4.11667 3.26267 4.1 3.538C4.08333 3.81334 3.98333 4.059 3.8 4.275C3.21667 4.925 2.771 5.65434 2.463 6.463C2.155 7.27167 2.00067 8.11734 2 9C2 10.95 2.67933 12.6043 4.038 13.963C5.39667 15.3217 7.05067 16.0007 9 16C10.95 16 12.6043 15.3207 13.963 13.962C15.3217 12.6033 16.0007 10.9493 16 9C16 8.11667 15.8417 7.26234 15.525 6.437C15.2083 5.61167 14.7583 4.87434 14.175 4.225C13.9917 4.025 13.8957 3.79167 13.887 3.525C13.8783 3.25834 13.966 3.03334 14.15 2.85C14.35 2.65 14.5917 2.55 14.875 2.55C15.1583 2.55 15.3917 2.65 15.575 2.85C16.3583 3.7 16.9583 4.65 17.375 5.7C17.7917 6.75 18 7.85 18 9C18 10.25 17.7623 11.421 17.287 12.513C16.8117 13.605 16.1703 14.555 15.363 15.363C14.5543 16.171 13.6043 16.8127 12.513 17.288C11.4217 17.7633 10.2507 18.0007 9 18Z" fill="#FF5486"/>
</svg>
