<svg width="44" height="44" viewBox="0 0 44 44" fill="none" xmlns="http://www.w3.org/2000/svg">
<rect x="0.9375" y="0.25" width="43.0625" height="43.0625" rx="21.5312" fill="#FF5757"/>
<path d="M32.4909 33.8144L24.5861 25.8983C23.8803 26.4637 23.0687 26.9114 22.1511 27.2412C21.2336 27.5711 20.2573 27.736 19.2221 27.736C16.6578 27.736 14.4877 26.8464 12.7119 25.0671C10.9362 23.2879 10.0478 21.1147 10.0469 18.5477C10.0469 15.9797 10.9352 13.8065 12.7119 12.0282C14.4886 10.2499 16.6587 9.36032 19.2221 9.35938C21.7865 9.35938 23.9565 10.249 25.7323 12.0282C27.5081 13.8075 28.3964 15.9806 28.3974 18.5477C28.3974 19.5843 28.2327 20.562 27.9033 21.4809C27.5739 22.3997 27.1269 23.2125 26.5623 23.9193L34.5024 31.8707C34.7612 32.1299 34.8906 32.4479 34.8906 32.8249C34.8906 33.2018 34.7495 33.5317 34.4671 33.8144C34.2084 34.0735 33.879 34.2031 33.479 34.2031C33.0791 34.2031 32.7497 34.0735 32.4909 33.8144ZM19.2221 24.9088C20.9866 24.9088 22.4866 24.2901 23.7222 23.0528C24.9578 21.8154 25.5752 20.3137 25.5742 18.5477C25.5742 16.7807 24.9564 15.2785 23.7208 14.0412C22.4852 12.8038 20.9857 12.1856 19.2221 12.1865C17.4577 12.1865 15.9576 12.8052 14.722 14.0426C13.4864 15.2799 12.8691 16.7816 12.87 18.5477C12.87 20.3147 13.4878 21.8168 14.7234 23.0542C15.959 24.2915 17.4586 24.9097 19.2221 24.9088Z" fill="white"/>
</svg>
