<svg width="39" height="38" viewBox="0 0 39 38" fill="none" xmlns="http://www.w3.org/2000/svg">
<path d="M26.5332 9.215C25.4509 7.9794 24.8544 6.3926 24.8549 4.75H19.9624V24.3833C19.9246 25.4458 19.4761 26.4521 18.7111 27.1905C17.9462 27.9288 16.9246 28.3415 15.8615 28.3417C13.6132 28.3417 11.7449 26.505 11.7449 24.225C11.7449 21.5017 14.3732 19.4592 17.0807 20.2983V15.295C11.6182 14.5667 6.83652 18.81 6.83652 24.225C6.83652 29.4975 11.2065 33.25 15.8457 33.25C20.8174 33.25 24.8549 29.2125 24.8549 24.225V14.2658C26.8388 15.6906 29.2207 16.455 31.6632 16.4508V11.5583C31.6632 11.5583 28.6865 11.7008 26.5332 9.215Z" fill="#FF5486"/>
</svg>
